<svg xmlns="http://www.w3.org/2000/svg" xmlns:xlink="http://www.w3.org/1999/xlink" width="500" zoomAndPan="magnify" viewBox="0 0 375 374.999991" height="500" preserveAspectRatio="xMidYMid meet" version="1.0"><path fill="#f6a7b7" d="M 281.144531 128.355469 C 281.265625 133.902344 281.265625 139.390625 281.144531 144.726562 L 271.492188 140.777344 L 271.492188 140.746094 L 272.878906 127.332031 Z M 281.144531 128.355469 " fill-opacity="1" fill-rule="nonzero"/><path fill="#ffd7d2" d="M 307.566406 131.613281 L 293.660156 129.894531 C 293.027344 93.566406 286.875 55.734375 276.828125 35.351562 C 281.203125 35.050781 285.335938 34.78125 289.105469 34.570312 C 301.414062 58.265625 307.507812 91.15625 307.566406 131.613281 Z M 307.566406 131.613281 " fill-opacity="1" fill-rule="nonzero"/><path fill="#f2778d" d="M 279.96875 164.714844 C 280.601562 158.382812 280.992188 151.691406 281.144531 144.726562 C 281.265625 139.390625 281.265625 133.902344 281.144531 128.355469 C 280.296875 92.664062 274.296875 54.796875 265.09375 36.199219 C 269.136719 35.894531 273.058594 35.59375 276.828125 35.351562 C 286.875 55.734375 293.027344 93.566406 293.660156 129.894531 C 293.78125 136.617188 293.691406 143.308594 293.421875 149.792969 C 293.148438 156.636719 292.636719 163.296875 291.882812 169.628906 C 291.488281 173.066406 291.039062 176.382812 290.496094 179.605469 C 289.980469 182.5625 287.417969 184.730469 284.402344 184.730469 C 284.070312 184.730469 283.738281 184.703125 283.40625 184.640625 C 280.027344 184.070312 277.765625 180.902344 278.308594 177.558594 C 279 173.515625 279.542969 169.207031 279.96875 164.714844 Z M 279.96875 164.714844 " fill-opacity="1" fill-rule="nonzero"/><path fill="#f2778d" d="M 319.511719 133.089844 C 319.511719 141.773438 319.242188 150.816406 318.730469 160.191406 L 306.964844 155.339844 C 307.386719 147.167969 307.597656 139.238281 307.566406 131.613281 C 307.507812 91.15625 301.414062 58.265625 289.105469 34.570312 C 293.84375 34.328125 298.003906 34.148438 301.355469 34.085938 C 313.660156 59.019531 319.484375 92.390625 319.511719 133.089844 Z M 319.511719 133.089844 " fill-opacity="1" fill-rule="nonzero"/><path fill="#f2778d" d="M 271.492188 140.777344 L 281.144531 144.726562 C 280.992188 151.691406 280.601562 158.382812 279.96875 164.714844 L 266.875 159.316406 C 265.878906 152.050781 264.882812 144.789062 263.917969 137.640625 L 271.492188 140.746094 Z M 271.492188 140.777344 " fill-opacity="1" fill-rule="nonzero"/><path fill="#f2778d" d="M 322.953125 161.910156 L 309.257812 167.125 L 297.101562 171.769531 L 291.882812 169.628906 C 292.636719 163.296875 293.148438 156.636719 293.421875 149.792969 L 306.964844 155.339844 L 318.730469 160.191406 Z M 322.953125 161.910156 " fill-opacity="1" fill-rule="nonzero"/><path fill="#f48ca7" d="M 325.667969 311.167969 C 322.199219 313.914062 319.363281 317.378906 317.3125 321.269531 C 316.890625 322.050781 316.527344 322.867188 316.164062 323.710938 L 316.136719 323.710938 C 314.625 323.316406 313.058594 323.199219 311.519531 323.316406 L 309.949219 215.210938 L 309.257812 167.125 L 322.953125 161.910156 L 325.636719 311.140625 Z M 325.667969 311.167969 " fill-opacity="1" fill-rule="nonzero"/><path fill="#f6a7b7" d="M 311.519531 323.316406 C 309.257812 323.5 307.085938 324.222656 305.15625 325.457031 L 297.101562 330.582031 L 297.101562 171.769531 L 309.257812 167.125 L 309.949219 215.210938 Z M 311.519531 323.316406 " fill-opacity="1" fill-rule="nonzero"/><path fill="#f48ca7" d="M 297.101562 171.769531 L 297.101562 330.582031 L 283.527344 325.398438 L 283.496094 325.398438 C 285.035156 319.066406 285.125 311.652344 286 304.597656 C 286.632812 299.5625 281.265625 261.488281 274.71875 215.210938 C 272.183594 197.332031 269.46875 178.21875 266.875 159.316406 L 279.96875 164.714844 C 279.542969 169.207031 279 173.515625 278.308594 177.558594 C 277.765625 180.902344 280.027344 184.070312 283.40625 184.640625 C 283.738281 184.703125 284.070312 184.730469 284.402344 184.730469 C 287.417969 184.730469 289.980469 182.5625 290.496094 179.605469 C 291.039062 176.382812 291.488281 173.066406 291.882812 169.628906 Z M 297.101562 171.769531 " fill-opacity="1" fill-rule="nonzero"/><path fill="#8ecaef" d="M 286 304.597656 C 285.125 311.652344 285.035156 319.066406 283.496094 325.398438 C 282.441406 329.949219 280.628906 333.929688 277.253906 336.882812 C 272.578125 341.015625 266.210938 340.832031 261.6875 339.988281 C 260.960938 339.839844 260.238281 339.808594 259.546875 339.839844 C 256.890625 339.898438 254.328125 341.136719 252.605469 343.277344 C 248.535156 348.308594 241.445312 355.363281 234.085938 354.851562 C 222.714844 354.007812 212.910156 330.914062 200.511719 329.800781 L 192.789062 198.269531 L 192.367188 190.882812 C 192.367188 190.1875 192.367188 189.496094 192.398438 188.800781 C 192.398438 188.078125 192.398438 187.355469 192.425781 186.632812 C 192.789062 160.644531 196.558594 135.171875 204.492188 118.859375 L 214.71875 120.125 C 214.71875 120.125 214.71875 159.316406 223.195312 159.316406 C 226.996094 159.316406 229.894531 143.402344 231.039062 122.148438 C 232.425781 96.070312 231.25 61.972656 226.0625 39.484375 C 233.722656 38.789062 242.019531 38.066406 250.285156 37.375 C 255.863281 50.425781 257.585938 85.820312 262.441406 126.035156 L 262.472656 126.035156 C 262.894531 129.863281 263.40625 133.753906 263.917969 137.640625 C 264.882812 144.789062 265.878906 152.050781 266.875 159.316406 C 276.226562 227.148438 286.875 297.632812 286 304.597656 Z M 286 304.597656 " fill-opacity="1" fill-rule="nonzero"/><path fill="#5cc096" d="M 103.621094 109.757812 L 113.90625 112.320312 L 106.246094 157.269531 L 93.304688 159.859375 L 103.621094 109.785156 Z M 103.621094 109.757812 " fill-opacity="1" fill-rule="nonzero"/><path fill="#8bcb8f" d="M 93.304688 159.859375 L 89.113281 180.148438 L 88.929688 181.054688 C 88.386719 183.648438 86.09375 185.394531 83.5625 185.394531 C 83.046875 185.394531 82.503906 185.304688 81.960938 185.152344 C 79.246094 184.308594 77.648438 181.535156 78.253906 178.792969 L 78.945312 175.566406 L 81.84375 162.183594 L 93.726562 107.195312 C 94.058594 107.34375 94.449219 107.496094 94.84375 107.585938 L 103.621094 109.757812 L 103.621094 109.785156 Z M 93.304688 159.859375 " fill-opacity="1" fill-rule="nonzero"/><path fill="#8bcb8f" d="M 179.667969 182.289062 L 165.398438 177.4375 L 165.398438 177.40625 C 163.890625 156.605469 162.203125 136.375 160.03125 117.683594 C 154.75 72.402344 146.636719 35.988281 131.402344 21.789062 L 131.402344 21.726562 L 148.507812 18.832031 L 148.539062 19.015625 C 159.726562 40.027344 167.84375 73.941406 173.332031 115.183594 C 176.109375 135.925781 178.191406 158.535156 179.667969 182.289062 Z M 179.667969 182.289062 " fill-opacity="1" fill-rule="nonzero"/><path fill="#8bcb8f" d="M 122.445312 114.429688 C 123.890625 81.207031 123.679688 50.546875 121.269531 23.414062 L 131.402344 21.726562 L 131.402344 21.789062 C 134.8125 46.71875 137.015625 80.300781 136.683594 118.105469 C 136.589844 133.785156 136.019531 150.214844 134.902344 167.035156 C 134.207031 177.738281 133.304688 188.621094 132.128906 199.59375 C 131.855469 202.21875 131.585938 204.808594 131.28125 207.433594 C 130.832031 211.472656 127.390625 214.425781 123.378906 214.425781 C 123.230469 214.425781 123.078125 214.425781 122.925781 214.425781 C 118.433594 214.15625 115.085938 210.175781 115.535156 205.714844 C 115.988281 201.34375 116.410156 197.003906 116.832031 192.691406 C 117.828125 182.230469 118.734375 171.917969 119.546875 161.789062 C 120.816406 145.539062 121.8125 129.714844 122.445312 114.429688 Z M 122.445312 114.429688 " fill-opacity="1" fill-rule="nonzero"/><path fill="#8bcb8f" d="M 127.03125 257.355469 L 127.03125 292.085938 L 78.132812 263.085938 L 78.132812 232.726562 Z M 127.03125 257.355469 " fill-opacity="1" fill-rule="nonzero"/><path fill="#5cc096" d="M 200.933594 337.15625 L 155.171875 357.777344 C 155.171875 357.777344 161.417969 335.679688 176.832031 330.582031 C 192.246094 325.488281 200.933594 337.15625 200.933594 337.15625 Z M 200.933594 337.15625 " fill-opacity="1" fill-rule="nonzero"/><path fill="#ffd7d2" d="M 377.070312 3.820312 L 377.070312 128.839844 L 364.609375 133.875 C 358.636719 136.285156 352.152344 137.160156 345.789062 136.347656 L 319.511719 133.089844 C 319.484375 92.390625 313.660156 59.019531 301.355469 34.085938 C 303.738281 34.027344 305.726562 34.027344 307.207031 34.117188 C 318.335938 34.691406 329.648438 37.703125 337.007812 40.027344 C 342.046875 41.625 347.535156 39.9375 350.886719 35.867188 Z M 377.070312 3.820312 " fill-opacity="1" fill-rule="nonzero"/><path fill="#ffc05a" d="M 375.890625 327.359375 C 371.1875 310.535156 353.691406 300.707031 336.859375 305.410156 C 334.234375 306.132812 331.761719 307.1875 329.5 308.515625 C 328.171875 309.300781 326.875 310.203125 325.667969 311.167969 C 321.472656 314.484375 318.214844 318.828125 316.164062 323.710938 C 313.511719 330.039062 312.90625 337.304688 314.898438 344.421875 C 319.183594 359.613281 333.871094 369.113281 349.105469 367.300781 C 350.703125 367.121094 352.332031 366.820312 353.933594 366.367188 C 370.765625 361.636719 380.597656 344.179688 375.890625 327.359375 Z M 350.070312 352.589844 L 345.394531 335.890625 C 342.863281 336.613281 340.265625 336.101562 338.246094 334.714844 C 336.585938 333.660156 335.289062 331.96875 334.714844 329.890625 C 334.203125 328.113281 334.292969 326.300781 334.867188 324.675781 C 335.773438 322.082031 337.882812 320 340.71875 319.1875 L 345.394531 335.890625 C 350.011719 334.59375 354.808594 337.277344 356.074219 341.890625 C 357.371094 346.5 354.6875 351.292969 350.070312 352.589844 Z M 350.070312 352.589844 " fill-opacity="1" fill-rule="nonzero"/><path fill="#ffc05a" d="M 356.074219 341.890625 C 357.371094 346.5 354.6875 351.292969 350.070312 352.589844 L 345.394531 335.890625 C 350.011719 334.59375 354.808594 337.277344 356.074219 341.890625 Z M 356.074219 341.890625 " fill-opacity="1" fill-rule="nonzero"/><path fill="#ffc05a" d="M 340.71875 319.1875 L 345.394531 335.890625 C 340.78125 337.1875 336.015625 334.503906 334.714844 329.890625 C 333.417969 325.277344 336.105469 320.484375 340.71875 319.1875 Z M 340.71875 319.1875 " fill-opacity="1" fill-rule="nonzero"/><path fill="#ffd7d2" d="M 281.144531 128.355469 L 272.878906 127.332031 L 262.472656 126.035156 L 262.441406 126.035156 C 257.585938 85.820312 255.863281 50.425781 250.285156 37.375 C 255.261719 36.980469 260.269531 36.558594 265.09375 36.199219 C 274.296875 54.796875 280.296875 92.664062 281.144531 128.355469 Z M 281.144531 128.355469 " fill-opacity="1" fill-rule="nonzero"/><path fill="#ffd7d2" d="M 148.507812 18.832031 L 131.402344 21.726562 L 121.269531 23.414062 C 118.460938 23.867188 115.597656 23.746094 112.820312 23.054688 L 112.039062 22.84375 L 120.996094 8.734375 C 124.644531 3.003906 131.34375 0.0195312 138.039062 1.136719 L 159.878906 4.785156 C 168.777344 6.292969 176.320312 12.171875 179.910156 20.460938 L 189.59375 42.890625 C 189.59375 42.890625 205.671875 41.292969 226.0625 39.484375 C 231.25 61.972656 232.425781 96.070312 231.039062 122.148438 L 231.007812 122.148438 L 214.71875 120.128906 L 204.492188 118.859375 L 176.710938 115.394531 C 175.59375 115.273438 174.449219 115.183594 173.332031 115.183594 C 167.84375 73.941406 159.726562 40.027344 148.539062 19.015625 Z M 148.507812 18.832031 " fill-opacity="1" fill-rule="nonzero"/><path fill="#d0e8cf" d="M 200.511719 329.800781 L 200.933594 337.15625 C 200.933594 337.15625 192.246094 325.488281 176.832031 330.582031 L 171.855469 201.433594 L 192.367188 190.882812 Z M 200.511719 329.800781 " fill-opacity="1" fill-rule="nonzero"/><path fill="#5cc096" d="M 192.425781 186.632812 C 192.398438 187.355469 192.398438 188.078125 192.398438 188.800781 C 192.367188 189.496094 192.367188 190.1875 192.367188 190.882812 L 171.855469 201.433594 L 155.171875 209.996094 L 132.15625 199.59375 L 132.128906 199.59375 C 133.304688 188.621094 134.207031 177.738281 134.902344 167.035156 L 165.398438 177.4375 L 179.667969 182.289062 L 192.398438 186.632812 Z M 156.832031 190.882812 C 156.832031 188.441406 154.085938 186.480469 150.738281 186.480469 C 147.359375 186.480469 144.644531 188.441406 144.644531 190.882812 C 144.644531 193.324219 147.359375 195.3125 150.738281 195.3125 C 154.085938 195.3125 156.832031 193.324219 156.832031 190.882812 Z M 156.832031 190.882812 " fill-opacity="1" fill-rule="nonzero"/><path fill="#8bcb8f" d="M 171.855469 201.433594 L 176.832031 330.582031 C 161.417969 335.679688 155.171875 357.777344 155.171875 357.777344 L 155.65625 210.207031 L 155.171875 209.996094 Z M 171.855469 201.433594 " fill-opacity="1" fill-rule="nonzero"/><path fill="#349370" d="M 155.171875 209.996094 L 142.351562 204.207031 L 132.15625 199.59375 L 132.128906 199.59375 C 131.855469 202.21875 131.585938 204.808594 131.28125 207.433594 C 130.832031 211.472656 127.390625 214.425781 123.378906 214.425781 L 122.925781 214.425781 C 118.433594 214.15625 115.085938 210.175781 115.535156 205.714844 C 115.988281 201.34375 116.410156 197.003906 116.832031 192.691406 L 98.25 184.28125 L 89.113281 180.148438 L 88.929688 181.054688 C 88.660156 182.410156 87.875 183.527344 86.847656 184.28125 C 85.914062 185.003906 84.769531 185.394531 83.5625 185.394531 C 83.046875 185.394531 82.503906 185.304688 81.960938 185.152344 C 81.328125 184.972656 80.785156 184.671875 80.304688 184.28125 C 78.644531 183.042969 77.800781 180.902344 78.253906 178.792969 L 78.945312 175.566406 L 59.308594 166.703125 L 58.976562 184.28125 L 56.835938 299.171875 C 62.265625 303.359375 66.398438 309.269531 68.386719 316.382812 C 68.902344 318.253906 69.261719 320.09375 69.445312 321.960938 C 89.324219 336.160156 113.816406 346.894531 142.351562 354.582031 C 146.546875 355.726562 150.828125 356.78125 155.171875 357.777344 L 155.65625 210.207031 Z M 127.03125 292.085938 L 78.132812 263.085938 L 78.132812 232.726562 L 127.03125 257.355469 Z M 127.03125 292.085938 " fill-opacity="1" fill-rule="nonzero"/><path fill="#ffd7d2" d="M 131.402344 21.789062 C 146.636719 35.988281 154.75 72.402344 160.03125 117.683594 C 152.730469 119.675781 144.042969 119.914062 136.710938 118.105469 L 136.683594 118.105469 C 137.015625 80.300781 134.8125 46.71875 131.402344 21.789062 Z M 131.402344 21.789062 " fill-opacity="1" fill-rule="nonzero"/><path fill="#d0e8cf" d="M 150.738281 186.480469 C 154.085938 186.480469 156.832031 188.441406 156.832031 190.882812 C 156.832031 193.324219 154.085938 195.3125 150.738281 195.3125 C 147.359375 195.3125 144.644531 193.324219 144.644531 190.882812 C 144.644531 188.441406 147.359375 186.480469 150.738281 186.480469 Z M 150.738281 186.480469 " fill-opacity="1" fill-rule="nonzero"/><path fill="#ffd7d2" d="M 98.855469 88.742188 L 92.792969 87.238281 C 89.082031 86.332031 86.609375 82.804688 87.03125 79.007812 L 87.90625 70.957031 C 88.359375 66.554688 92.492188 63.480469 96.863281 64.292969 L 90.679688 63.148438 C 87.300781 62.515625 85.007812 59.378906 85.429688 55.972656 L 86.609375 46.6875 C 87.121094 42.679688 91.132812 40.117188 94.992188 41.351562 L 89.535156 39.605469 C 85.945312 38.457031 83.894531 34.628906 84.980469 30.980469 L 87.210938 23.503906 C 88.265625 19.917969 91.976562 17.808594 95.597656 18.710938 L 112.039062 22.84375 L 112.820312 23.054688 C 115.597656 23.746094 118.460938 23.867188 121.269531 23.414062 C 123.679688 50.546875 123.890625 81.207031 122.445312 114.429688 L 113.90625 112.320312 L 103.621094 109.757812 L 94.84375 107.585938 C 94.449219 107.496094 94.058594 107.34375 93.726562 107.195312 C 91.433594 106.109375 90.078125 103.636719 90.5 101.042969 L 91.765625 93.417969 C 92.308594 90.101562 95.566406 87.929688 98.855469 88.742188 Z M 98.855469 88.742188 " fill-opacity="1" fill-rule="nonzero"/><path fill="#5cc096" d="M 119.519531 161.789062 L 119.546875 161.789062 C 118.734375 171.917969 117.828125 182.230469 116.832031 192.691406 L 89.113281 180.148438 L 93.304688 159.859375 L 106.246094 157.269531 Z M 112.066406 173.398438 C 112.066406 170.953125 109.324219 168.964844 105.972656 168.964844 C 102.59375 168.964844 99.878906 170.953125 99.878906 173.398438 C 99.878906 175.839844 102.59375 177.796875 105.972656 177.796875 C 109.324219 177.796875 112.066406 175.839844 112.066406 173.398438 Z M 112.066406 173.398438 " fill-opacity="1" fill-rule="nonzero"/><path fill="#d0e8cf" d="M 105.972656 168.964844 C 109.324219 168.964844 112.066406 170.953125 112.066406 173.398438 C 112.066406 175.839844 109.324219 177.796875 105.972656 177.796875 C 102.59375 177.796875 99.878906 175.839844 99.878906 173.398438 C 99.878906 170.953125 102.59375 168.964844 105.972656 168.964844 Z M 105.972656 168.964844 " fill-opacity="1" fill-rule="nonzero"/><path fill="#5cc096" d="M 81.84375 162.183594 L 78.945312 175.566406 L 59.308594 166.703125 Z M 81.84375 162.183594 " fill-opacity="1" fill-rule="nonzero"/><path fill="#ffc05a" d="M 77.679688 105.476562 C 72.730469 87.75 54.363281 77.4375 36.65625 82.382812 C 34.84375 82.894531 33.125 83.527344 31.464844 84.3125 C 16.988281 91.09375 9.113281 107.527344 13.546875 123.414062 C 18.375 140.566406 35.78125 150.816406 52.972656 146.867188 C 53.515625 146.777344 54.058594 146.625 54.601562 146.476562 C 72.308594 141.53125 82.65625 123.171875 77.679688 105.476562 Z M 50.5625 131.976562 L 45.613281 114.429688 C 44.375 114.789062 43.109375 114.851562 41.902344 114.671875 C 38.433594 114.1875 35.386719 111.714844 34.390625 108.128906 C 33.488281 104.902344 34.453125 101.585938 36.625 99.324219 C 37.710938 98.179688 39.097656 97.335938 40.695312 96.882812 L 45.613281 114.429688 C 50.46875 113.074219 55.507812 115.90625 56.863281 120.761719 C 58.222656 125.613281 55.386719 130.589844 50.5625 131.976562 Z M 50.5625 131.976562 " fill-opacity="1" fill-rule="nonzero"/><path fill="#ffc05a" d="M 69.445312 321.960938 C 69.261719 320.09375 68.902344 318.253906 68.386719 316.382812 C 66.398438 309.269531 62.265625 303.359375 56.835938 299.171875 C 48.78125 292.871094 37.953125 290.367188 27.363281 293.320312 C 24.046875 294.257812 21 295.644531 18.253906 297.453125 C 6.308594 305.140625 0.246094 319.972656 4.257812 334.351562 C 8.691406 350.089844 23.683594 360.007812 39.398438 358.5 C 41.359375 358.320312 43.351562 357.957031 45.3125 357.414062 C 61.148438 352.984375 71.101562 337.820312 69.445312 321.960938 Z M 41.238281 342.914062 L 36.324219 325.367188 C 32.792969 326.363281 29.171875 325.125 26.910156 322.503906 C 26.097656 321.539062 25.464844 320.363281 25.101562 319.066406 C 24.828125 318.164062 24.738281 317.226562 24.769531 316.324219 C 24.890625 312.464844 27.453125 308.90625 31.40625 307.824219 L 36.324219 325.367188 C 41.179688 324.011719 46.21875 326.84375 47.574219 331.699219 C 48.933594 336.550781 46.097656 341.558594 41.238281 342.914062 Z M 41.238281 342.914062 " fill-opacity="1" fill-rule="nonzero"/><path fill="#ffc05a" d="M 56.863281 120.761719 C 58.222656 125.613281 55.386719 130.589844 50.5625 131.976562 L 45.613281 114.429688 C 50.46875 113.074219 55.507812 115.90625 56.863281 120.761719 Z M 56.863281 120.761719 " fill-opacity="1" fill-rule="nonzero"/><path fill="#ffc05a" d="M 47.574219 331.699219 C 48.933594 336.550781 46.097656 341.558594 41.238281 342.914062 L 36.324219 325.367188 C 41.179688 324.011719 46.21875 326.84375 47.574219 331.699219 Z M 47.574219 331.699219 " fill-opacity="1" fill-rule="nonzero"/><path fill="#ffc05a" d="M 40.695312 96.882812 L 45.613281 114.429688 C 40.789062 115.785156 35.75 112.953125 34.390625 108.128906 C 33.035156 103.273438 35.871094 98.238281 40.695312 96.882812 Z M 40.695312 96.882812 " fill-opacity="1" fill-rule="nonzero"/><path fill="#ffc05a" d="M 31.40625 307.824219 L 36.324219 325.367188 C 31.464844 326.726562 26.457031 323.890625 25.101562 319.066406 C 23.742188 314.214844 26.550781 309.179688 31.40625 307.824219 Z M 31.40625 307.824219 " fill-opacity="1" fill-rule="nonzero"/><path fill="#f7b6ad" d="M 117.917969 26.699219 C 115.960938 26.699219 114.011719 26.457031 112.089844 25.980469 C 110.476562 25.578125 109.496094 23.941406 109.890625 22.324219 C 110.300781 20.710938 111.933594 19.738281 113.550781 20.125 C 115.933594 20.722656 118.367188 20.824219 120.789062 20.441406 L 154.671875 14.742188 C 156.304688 14.453125 157.871094 15.574219 158.144531 17.21875 C 158.417969 18.859375 157.3125 20.414062 155.667969 20.6875 L 121.761719 26.386719 C 120.480469 26.597656 119.199219 26.699219 117.917969 26.699219 Z M 117.917969 26.699219 " fill-opacity="1" fill-rule="nonzero"/><path fill="#f7b6ad" d="M 112.039062 49.824219 C 111.734375 49.824219 111.425781 49.777344 111.117188 49.679688 L 94.078125 44.222656 C 92.492188 43.714844 91.617188 42.019531 92.125 40.433594 C 92.632812 38.851562 94.324219 37.976562 95.917969 38.484375 L 112.957031 43.9375 C 114.542969 44.445312 115.417969 46.144531 114.910156 47.730469 C 114.5 49.007812 113.308594 49.824219 112.039062 49.824219 Z M 112.039062 49.824219 " fill-opacity="1" fill-rule="nonzero"/><path fill="#f7b6ad" d="M 112.039062 70.078125 C 111.859375 70.078125 111.679688 70.066406 111.496094 70.027344 L 96.324219 67.253906 C 94.683594 66.957031 93.601562 65.386719 93.898438 63.75 C 94.199219 62.113281 95.773438 61.019531 97.40625 61.324219 L 112.578125 64.097656 C 114.21875 64.398438 115.300781 65.96875 115.003906 67.605469 C 114.738281 69.0625 113.46875 70.078125 112.039062 70.078125 Z M 112.039062 70.078125 " fill-opacity="1" fill-rule="nonzero"/><path fill="#f7b6ad" d="M 112.039062 95.015625 C 111.800781 95.015625 111.558594 94.984375 111.3125 94.925781 L 98.132812 91.671875 C 96.515625 91.269531 95.527344 89.636719 95.929688 88.019531 C 96.328125 86.40625 97.964844 85.425781 99.582031 85.820312 L 112.765625 89.074219 C 114.382812 89.476562 115.367188 91.109375 114.964844 92.726562 C 114.625 94.09375 113.394531 95.015625 112.039062 95.015625 Z M 112.039062 95.015625 " fill-opacity="1" fill-rule="nonzero"/><path fill="#52a7d7" d="M 243.289062 169.386719 C 243.136719 169.386719 242.984375 169.375 242.832031 169.351562 C 241.1875 169.105469 240.054688 167.5625 240.304688 165.917969 C 245.121094 134.222656 244.6875 101.773438 239.015625 69.457031 C 238.726562 67.816406 239.824219 66.25 241.46875 65.964844 C 243.128906 65.679688 244.671875 66.777344 244.960938 68.414062 C 250.742188 101.378906 251.183594 134.484375 246.269531 166.828125 C 246.039062 168.316406 244.757812 169.386719 243.289062 169.386719 Z M 243.289062 169.386719 " fill-opacity="1" fill-rule="nonzero"/><path fill="#ef9d26" d="M 347.789062 355.910156 C 342.660156 355.910156 337.933594 352.523438 336.488281 347.375 C 336.039062 345.773438 336.96875 344.109375 338.574219 343.660156 C 340.164062 343.214844 341.84375 344.140625 342.292969 345.746094 C 343.136719 348.742188 346.277344 350.507812 349.269531 349.683594 C 352.257812 348.847656 354.011719 345.714844 353.167969 342.707031 C 352.765625 341.25 351.835938 340.050781 350.53125 339.3125 C 349.207031 338.566406 347.671875 338.375 346.210938 338.792969 C 343.207031 339.632812 340.050781 339.261719 337.332031 337.734375 C 334.617188 336.207031 332.65625 333.710938 331.8125 330.707031 C 330.066406 324.5 333.695312 318.03125 339.90625 316.285156 C 346.132812 314.582031 352.605469 318.222656 354.304688 324.417969 C 354.746094 326.023438 353.800781 327.683594 352.199219 328.125 C 350.585938 328.558594 348.925781 327.625 348.488281 326.015625 C 347.667969 323.027344 344.542969 321.269531 341.515625 322.09375 C 338.53125 322.933594 336.773438 326.066406 337.617188 329.078125 C 338.027344 330.53125 338.976562 331.742188 340.289062 332.480469 C 341.597656 333.210938 343.117188 333.394531 344.578125 332.984375 C 347.597656 332.144531 350.769531 332.523438 353.496094 334.058594 C 356.210938 335.59375 358.15625 338.089844 358.980469 341.089844 C 359.820312 344.078125 359.441406 347.234375 357.917969 349.957031 C 356.386719 352.679688 353.890625 354.648438 350.882812 355.492188 C 349.851562 355.773438 348.808594 355.910156 347.789062 355.910156 Z M 347.789062 355.910156 " fill-opacity="1" fill-rule="nonzero"/><path fill="#ef9d26" d="M 351.484375 360.605469 C 350.167969 360.605469 348.957031 359.742188 348.582031 358.414062 L 336.453125 315.140625 C 336.007812 313.539062 336.941406 311.875 338.542969 311.429688 C 340.132812 310.980469 341.816406 311.914062 342.261719 313.515625 L 354.382812 356.769531 C 354.835938 358.371094 353.90625 360.039062 352.304688 360.488281 C 352.035156 360.574219 351.757812 360.605469 351.484375 360.605469 Z M 351.484375 360.605469 " fill-opacity="1" fill-rule="nonzero"/><path fill="#ef9d26" d="M 38.746094 346.273438 C 36.695312 346.273438 34.671875 345.746094 32.839844 344.71875 C 30.019531 343.140625 27.988281 340.546875 27.117188 337.425781 C 26.667969 335.820312 27.605469 334.15625 29.207031 333.710938 C 30.796875 333.269531 32.480469 334.195312 32.921875 335.800781 C 33.363281 337.371094 34.378906 338.667969 35.792969 339.460938 C 37.210938 340.253906 38.855469 340.445312 40.425781 340.011719 C 42.003906 339.570312 43.308594 338.550781 44.113281 337.136719 C 44.910156 335.722656 45.105469 334.082031 44.667969 332.511719 C 44.230469 330.9375 43.207031 329.632812 41.78125 328.832031 C 40.363281 328.03125 38.714844 327.835938 37.136719 328.269531 C 30.707031 330.066406 24.003906 326.304688 22.199219 319.882812 C 21.324219 316.757812 21.714844 313.484375 23.292969 310.664062 C 24.875 307.832031 27.46875 305.792969 30.59375 304.917969 C 33.71875 304.050781 36.996094 304.441406 39.824219 306.03125 C 42.65625 307.621094 44.691406 310.21875 45.5625 313.34375 C 46.007812 314.941406 45.074219 316.605469 43.46875 317.054688 C 41.886719 317.503906 40.203125 316.566406 39.753906 314.960938 C 39.316406 313.390625 38.292969 312.085938 36.867188 311.285156 C 35.4375 310.484375 33.789062 310.289062 32.222656 310.722656 C 30.652344 311.164062 29.355469 312.183594 28.5625 313.601562 C 27.765625 315.023438 27.570312 316.675781 28.007812 318.253906 C 28.914062 321.472656 32.269531 323.347656 35.515625 322.460938 C 38.644531 321.585938 41.917969 321.984375 44.746094 323.570312 C 47.574219 325.164062 49.609375 327.761719 50.480469 330.886719 C 51.355469 334.003906 50.957031 337.277344 49.367188 340.097656 C 47.777344 342.914062 45.175781 344.941406 42.050781 345.8125 C 40.960938 346.121094 39.847656 346.273438 38.746094 346.273438 Z M 38.746094 346.273438 " fill-opacity="1" fill-rule="nonzero"/><path fill="#ef9d26" d="M 42.714844 351.234375 C 41.394531 351.234375 40.183594 350.363281 39.8125 349.03125 L 27.082031 303.53125 C 26.636719 301.929688 27.574219 300.269531 29.179688 299.820312 C 30.785156 299.382812 32.445312 300.316406 32.894531 301.917969 L 45.621094 347.410156 C 46.066406 349.015625 45.128906 350.679688 43.527344 351.121094 C 43.257812 351.199219 42.984375 351.234375 42.714844 351.234375 Z M 42.714844 351.234375 " fill-opacity="1" fill-rule="nonzero"/><path fill="#ef9d26" d="M 48.050781 135.332031 C 45.996094 135.332031 43.96875 134.808594 42.132812 133.773438 C 39.308594 132.191406 37.277344 129.597656 36.40625 126.484375 C 35.960938 124.882812 36.894531 123.21875 38.496094 122.769531 C 40.089844 122.332031 41.765625 123.257812 42.214844 124.859375 C 42.65625 126.425781 43.671875 127.722656 45.085938 128.519531 C 46.503906 129.316406 48.136719 129.519531 49.714844 129.070312 C 49.769531 129.054688 49.824219 129.042969 49.882812 129.03125 C 53.019531 128.039062 54.84375 124.730469 53.960938 121.570312 C 53.519531 119.996094 52.496094 118.691406 51.074219 117.890625 C 49.652344 117.089844 48.003906 116.894531 46.425781 117.328125 C 43.320312 118.203125 40.050781 117.808594 37.226562 116.21875 C 34.398438 114.632812 32.363281 112.046875 31.492188 108.9375 C 29.6875 102.492188 33.449219 95.785156 39.882812 93.976562 C 43.007812 93.101562 46.289062 93.5 49.117188 95.085938 C 51.945312 96.679688 53.980469 99.273438 54.851562 102.398438 C 55.300781 104 54.363281 105.664062 52.761719 106.113281 C 51.183594 106.558594 49.496094 105.628906 49.046875 104.023438 C 48.605469 102.453125 47.582031 101.144531 46.15625 100.339844 C 44.734375 99.542969 43.089844 99.347656 41.515625 99.78125 C 38.285156 100.6875 36.394531 104.066406 37.304688 107.308594 C 37.742188 108.867188 38.761719 110.164062 40.183594 110.960938 C 41.605469 111.765625 43.25 111.957031 44.800781 111.519531 C 51.25 109.722656 57.976562 113.496094 59.773438 119.945312 C 61.5625 126.332031 57.804688 133.027344 51.398438 134.867188 C 51.316406 134.890625 51.230469 134.910156 51.144531 134.929688 C 50.117188 135.199219 49.078125 135.332031 48.050781 135.332031 Z M 48.050781 135.332031 " fill-opacity="1" fill-rule="nonzero"/><path fill="#ef9d26" d="M 52.035156 140.292969 C 50.714844 140.292969 49.503906 139.421875 49.132812 138.089844 L 36.375 92.597656 C 35.925781 90.992188 36.867188 89.328125 38.46875 88.886719 C 40.070312 88.429688 41.738281 89.375 42.179688 90.976562 L 54.941406 136.46875 C 55.386719 138.074219 54.453125 139.738281 52.847656 140.179688 C 52.578125 140.257812 52.304688 140.292969 52.035156 140.292969 Z M 52.035156 140.292969 " fill-opacity="1" fill-rule="nonzero"/></svg>